<?xml version="1.0" encoding="utf-8"?>
<!-- Generator: Adobe Illustrator 18.1.1, SVG Export Plug-In . SVG Version: 6.00 Build 0)  -->
<svg version="1.1" xmlns="http://www.w3.org/2000/svg" xmlns:xlink="http://www.w3.org/1999/xlink" x="0px" y="0px"
	 viewBox="0 0 150.79 99.41" enable-background="new 0 0 150.79 99.41" xml:space="preserve">
<g id="Carte_éclaircie_xA0_Image_1_">
	<path d="M145.599,44.141c-0.252-0.102-1.354-0.345-1.502-0.594c-0.181-0.305,0.172-0.474,0.06-0.79
		c-0.084-0.24-0.735-0.904-0.936-0.974c-0.647-0.226-0.316-0.051-0.945,0.16c-0.928,0.312-0.698,0.45-1.249,1.309
		c-0.392,0.611-1.156,0.906-0.457,1.645c-0.774,0.297-0.881-0.112-1.58-0.087c-0.293,0.01-0.524-0.236-0.774,0.022
		c-0.698,0.72,0.056,1.933-0.253,2.575c-0.193,0.401-1.036,0.256-1.474,0.443c-0.327,0.14-0.545,0.438-0.902,0.577
		c-0.105,0.041-1.306,0.318-1.355,0.306c-0.327-0.079-0.55-0.483-0.905-0.727c-0.262-0.069-0.526-0.132-0.791-0.186
		c-0.023-0.116-0.046-0.232-0.069-0.348c-0.259-0.286-0.374-0.789-0.722-1.038c-0.398-0.285-0.614-0.09-0.985-0.31
		c-0.434-0.258-0.468-0.5-0.944-0.632c-1.086-0.3-2.203-0.246-2.721-1.415c-0.541-1.223,1-1.853-0.233-2.888
		c0.589-0.635,0.038-0.415-0.343-0.571c-0.209,0.108-0.431,0.18-0.665,0.216c-0.22-0.066-0.43-0.152-0.632-0.258
		c-0.415-0.158-0.715-0.575-1.106-0.699c-0.472-0.149-1.004-0.112-1.503-0.259c-0.589-0.173-1.222-0.706-1.763-0.814
		c-0.182-0.036-0.878-0.031-1.09,0.007c-0.054,0.23-0.188,0.373-0.403,0.429c-0.217-0.072-0.419-0.175-0.604-0.309
		c-0.461-0.02-0.532,0.092-1.004,0.219c-0.982,0.264-0.361-0.202-0.886-0.305c-0.555-0.11-2.762,0.782-2.116-0.249
		c0.358-0.571,0.998-0.507,1.205-1.302c0.118-0.452-0.048-1.131-0.185-1.558c-0.42-1.305-0.883-2.065-0.531-3.464
		c0.567-2.255,2.14-3.7,3.023-5.607c0.216-0.466,0.245-0.811,0.637-1.203c0.452-0.453,0.888-0.328,1.364-0.683
		c1.077-0.802-0.196-1.445-0.3-2.406c-0.117-1.08,0.72-1.259-0.57-1.686c-0.811-0.268-0.839-0.319-1.355-0.884
		c-0.123-0.135-0.691-0.996-0.867-1.03c-0.43-0.085-0.323,0.497-0.686,0.733c-0.308,0.2-1.038,0.312-1.405,0.177
		c-0.509-0.187-1.035-1.336-1.707-1.214c0.503-0.79-1.088-1.117-1.422-1.784c-0.439-0.875-0.038-0.999-0.94-1.595
		c-1.024-0.677-1.931-1.479-3.014-2.06c-0.767-0.412-1.56-0.772-2.279-1.219c-0.414-0.257-0.5-0.389-0.988-0.556
		c-0.516-0.176-1.028-0.332-1.532-0.525c-0.968-0.37-2.059-0.644-3.121-0.39c-1.009,0.241-2.338,1.721-3.407,1.534
		c-0.78-0.136-1.351-1.467-1.262-2.148c0.115,0.099,0.246,0.165,0.393,0.198c0.452-0.586-0.753-0.826-1.054-0.965
		c-0.459-0.211-0.282,0.005-0.623-0.376c-0.066-0.073-0.343-0.575-0.336-0.571c-0.26-0.128-1.482,0.599-1.235,1.209
		c0.054,0.134,1.86,0.845,0.548,1.206c-0.099,0.027-1.642-0.565-1.702-0.67c-0.144-0.252,0.24-0.641,0.159-0.908
		c-0.065-0.214-0.488-0.455-0.489-0.545c-0.003-0.177-0.156-0.255-0.069-0.508c0.093-0.27,0.815-0.191,0.855-0.538
		c0.104-0.899-1.299-0.681-1.662-0.393c-0.084-0.448-0.271-2.03-1.123-1.787c-0.386,0.111-0.206,2.248-0.948,1.365
		c-0.6-0.715,0.288-1.408-0.824-1.814c-0.876-0.32-1.546,0.234-0.76,0.976c-0.292,0.29-0.741,0.068-1.137,0.109
		c-0.245,0.076-0.446,0.214-0.606,0.416c-0.249-0.178-0.486-0.164-0.711,0.044C83.49,6.5,82.945,7.078,82.676,7.694
		c-0.38,0.872,0.225,0.356-0.53,1.02c-0.617,0.543-0.656,0.522-0.728,1.302c-0.031,0.342-0.008,0.878,0.156,1.172
		c0.003,0.006,2.067,1.335,1.858,1.381c0.14-0.11,0.199-0.262,0.179-0.455c0.275,0.187,0.974,0.139,1.236,0.001
		c0.502-0.266,0.366-0.401,0.749-0.696c0.386-0.298,0.961-0.338,1.583-0.271c0.355,0.038,0.615-0.175,0.843,0.443
		c0.131,0.355,0.242,0.788-0.406,0.757c0.513-0.478-0.347-0.911-0.427,0.305c-0.055,0.838,0.418,1.903-0.958,1.427
		c0.534-0.667,0.164-0.801-0.495-1.146c-1.022-0.534-0.801-0.128-1.488,0.424c-0.332,0.266-0.974,0.086-1.226,0.605
		c-0.423,0.873,0.481,0.524,0.828,0.942c-0.058,0.603-1.677,0.662-2.085,0.609c-0.252-0.032-0.412-0.292-0.707-0.285
		c-0.304,0.007-0.362,0.454-0.606,0.489c-0.668,0.096-1.607-0.358-2.034-0.84c-0.357-0.404-0.376-1.009-0.825-1.277
		c0.036,0.022-0.948-0.147-0.846-0.147c-0.173-0.188-0.338-0.207-0.496-0.059c-0.158,0.079-0.3,0.182-0.427,0.306
		c-0.443-0.141-0.301-0.688-0.921-0.535c-0.417,0.103-0.419,0.773-0.734,0.955c-0.398,0.23-0.475,0.013-0.843,0.161
		c-0.679,0.273-1.116,0.785-1.611,1.186c-0.343,0.277-0.307,0.298-0.669,0.435c-0.226-0.13-0.423-0.116-0.592,0.042
		c-0.163,0.092-0.315,0.201-0.456,0.325c-0.359,0.112-0.818,0.308-1.181,0.296c-0.516-0.017-0.614-0.419-1.011-0.482
		c-0.681-0.108-1.071,1.106-1.697,0.355c-0.446-0.536,0.137-1.002-0.605-1.569c-0.512-0.392-0.729-0.174-1.236-0.172
		c0.082,0-1.112-0.04-1.028-0.083c-0.662,0.34-0.688,1.291-1.525,1.665c-0.605,0.27-1.738,0.814-2.366,0.868
		c-0.368,0.032-1.513-0.23-1.552-0.819c0.374-0.177,0.744-0.361,1.11-0.553c0.329-0.172,0.359-0.388,0.09-0.647
		c-0.328-0.153-0.387-0.336-0.179-0.548c0.15-0.114,0.203-0.264,0.161-0.451c-0.439,0.212-1.119,0.275-1.509,0.506
		c-0.184,0.109-0.371,0.49-0.594,0.577c-0.755,0.298-1.28-0.032-1.991,0.46c-0.326,0.226-1.6,0.908-1.727,1.224
		c-0.514,1.272,1.298-0.157,0.734,1.095c-1.377-0.985-0.159,0.976-0.939,1.419c-1.044,0.592-1.572-1.461-2.282,0.294
		c1.181,0.388,0.995,0.315,0.231,1.023c-0.487,0.452-0.497,0.787-1.224,0.955c-0.714,0.165-1.278-0.19-1.973-0.135
		c-0.572,0.046-1.118,0.342-1.674,0.462c-1.048,0.225-0.266,0.005-1.147-0.482c-0.274-0.151-0.654,0.055-0.974,0.031
		c-0.902-0.066-0.898-0.411-0.626-1.207c0.224-0.656,1.093-1.166,0.367-1.365c-0.399-0.109-0.783,0.117-1.228-0.026
		c-0.828-0.267-0.559-0.287-1.341-0.107c-1.013,0.234-1.357,0.054-2.321-0.139c-0.534-0.107-1.015-0.184-1.371,0.339
		c-0.337,0.496-0.077,0.628-0.014,1.057c0.043,0.293,0.323,0.276,0.236,0.627c-0.13,0.525-0.25,0.116-0.546,0.375
		c-0.211,0.185-0.609,0.374-0.809,0.543c-0.168,0.142-0.322-0.034-0.477,0.18c-0.179,0.246,0.078,0.472-0.025,0.683
		c-0.196,0.4-0.47,0.517-0.76,0.877c-0.12,0.149-0.088,0.338-0.156,0.414c-0.056,0.062-0.392,0.284-0.454,0.384
		c-0.157,0.253-0.851,1.043-0.484,1.371c0.19,0.17,0.694-0.153,0.95-0.193c0.317-0.049,0.765-0.039,1.123-0.076
		c0.651-0.066,1.378-0.299,1.923-0.367c0.709-0.089,2.146,0.73,1.186,1.687c-0.255,0.255-0.81,0.074-1.047,0.359
		c-0.062,0.074,0.1,0.343,0.044,0.428c-0.236,0.357-0.298,0.392-0.679,0.602c-0.345,0.19-1.056,0.091-1.298,0.287
		c-0.374,0.304-0.126,0.319-0.156,0.725c-0.082,1.085,0.276,1.708-0.773,2.562c-0.541,0.441-0.966,0.706-1.417,1.229
		c-0.214,0.249-0.896,0.703-1.008,0.954c-0.28,0.626,0.462,0.568-0.438,1.265c-0.374,0.289-0.756,0.596-1.16,0.829
		c-0.604,0.348-1.257,0.476-1.606,0.94c-0.043,0.058,0.147,0.285,0.104,0.333c-0.139,0.153-0.12,0.145-0.353,0.354
		c-0.339,0.304-1.04,0.326-1.071,0.917c-0.025,0.482-0.022,0.411,0.595,0.874c-0.672,0.744-1.409,0.833-2.045,1.657
		c-0.636,0.824-1.153,0.969-2.142,1.289c-0.484,0.157-0.954,0.396-1.431,0.578c-0.324,0.119-0.648,0.239-0.972,0.358
		c-0.155-0.283-0.308-0.334-0.457-0.154c-0.51,0.255-1.768,1.847-1.651,2.448c0.174,0.891,0.971,1.304,0.794,2.426
		c-0.103,0.657-0.506,1.111-0.714,1.724c-0.215,0.634-0.064,0.714,0.048,1.245c0.144,0.677,0.719-0.14,0.336,0.967
		c-0.159,0.459-0.575,0.707-0.948,0.943c-0.316,0.201-0.657,0.315-0.96,0.54c0.003,0.136,0.005,0.271,0.007,0.407
		c-0.129,0.02-0.256,0.049-0.381,0.087c-0.561,0.564-1.184,0.875-1.914,1.228c-0.944,0.457-1.5,1.263-2.227,1.983
		c-0.693,0.686-1.393,1.429-2.138,2.059c-0.527,0.446-1.542,0.843-1.803,1.556c-0.218,0.596-0.13,0.455,0.429,1.006
		c0.309,0.305,0.581,0.451,0.567,0.815c-0.029,0.766-1.149,1.235-1.515,1.866c-0.162,0.279-0.144,0.679-0.307,0.986
		c-0.159,0.301-0.645,0.479-0.667,0.875c-0.016,0.285,0.414,0.467,0.419,0.798c0.005,0.345-0.508,0.876-0.617,1.231
		c1.068,0.271,1.525,0.789,2.396,1.442c1.121,0.839,0.645,1.005-0.063,2.026c-0.213,0.306-0.434,0.791-0.564,1.131
		c-0.037,0.096-0.349,0.911-0.361,0.981c-0.305,0.248-0.293,0.483,0.033,0.705c-0.009,0.25,0.064,0.474,0.219,0.67
		c0.26,0.24,0.235,0.448-0.076,0.624c-0.214,0.287-0.419,0.284-0.615-0.009c-0.221,0.023-0.57-0.102-0.819-0.039
		c-0.161,0.04-0.957,0.436-1.254,0.598c-0.552,0.302-1.966,0.661-1.767,1.57c0.089,0.405,0.592,0.426,0.655,0.854
		c0.034,0.233-0.554,0.987-0.64,1.15c-0.776,1.474,0.219,0.607,1.172,0.517c0.263,0.003,0.504,0.077,0.724,0.221
		c0.27,0.08,0.472-0.01,0.606-0.269c0.113-0.232,0.293-0.312,0.538-0.238c0.363,0.087,0.717,0.201,1.062,0.342
		c1.275,0.233,2.079-0.462,2.715-1.402c0.711-1.052,1.343-1.19,2.459-1.752c0.613-0.309,1.509-0.794,1.291-1.682
		c-0.158-0.641-0.389-0.491-0.747-0.526c-0.633-0.061,0.044,0.65-0.842,0.077c-0.174-0.159-0.316-0.343-0.425-0.551
		c-0.252-0.26-0.187-0.474,0.194-0.645c-0.017-0.257,0.576-0.724-0.139-0.984c0.032,0.012-1.194,1.601-1.315,1.796
		c-0.568,0.925-0.542,2.122-1.656,2.792c-0.53-0.606,0.278-1.94,0.471-2.537c0.175-0.542,0.171-1.111,0.423-1.639
		c0.432-0.905,0.866-2.114,1.413-2.94c0.531-0.799,1.394-1.281,1.984-1.997c0.507-0.616,0.838-1.467,1.541-1.991
		c0.783-0.584,1.538-0.229,2.386-0.455c0.763-0.203,1.492-0.7,1.988-1.22c0.406-0.426,0.662-1.041,1.296-1.044
		c0.328-0.001,0.585,0.406,0.989,0.394c0.43-0.013,0.722-0.481,1.195-0.474c0.075,0.001,0.709,0.31,0.71,0.31
		c0.456,0.134,0.821,0.148,1.306,0.208c0.636,0.078,1.002,0.322,1.573,0.549c0.373,0.148,0.787,0.075,1.115,0.199
		c0.462,0.174,0.848,0.432,1.309,0.598c0.363,0.131,0.872,0.166,1.201,0.315c0.545,0.246,1.003,0.709,1.535,0.95
		c0.515,0.233,0.943,0.399,1.277,0.814c1.04,1.293-0.388,1.077-1.27,1.336c-0.956,0.281-1.112,0.292-2.315,0.063
		c0,0.129,0.15,0.611,0.07,0.719c-0.179,0.241-0.754,0.44-0.861,0.672c-0.355,0.763,0.247,1.146,0.65,1.591
		c0.382,0.422,0.736,1.013,1.189,1.433c0.585,0.541,1.194,0.728,0.662,1.728c-0.233,0.438-0.823,0.69-1.063,1.133
		c-0.511,0.942-0.229,1.56-0.436,2.465c-0.185,0.808-0.964,1.467,0.069,2.124c0.523,0.333,2.071,0.349,2.698,0.381
		c-0.046,0.429-0.324,0.768-0.382,1.175c-0.027,0.19,0.118,0.393,0.082,0.565c0.021,0.14,0.042,0.281,0.062,0.421
		c-0.23,0.124-0.371,0.306-0.423,0.546c-0.199,1.574,1.244,0.386,1.861-0.064c0.173,0.773,0.937,1.63,1.404,2.227
		c0.459,0.586,0.797,0.899,1.273,1.515c-0.947,0.678,0.158,0.696,0.416,1.205c0.2,0.397-0.009,0.87,0.19,1.302
		c0.213,0.462,0.677,0.848,0.949,1.348c0.165,0.302,0.728,1.526,1.042,1.64c0.594,0.216,0.911-0.776,1.346-0.829
		c0.563-0.068,0.907,1.014,1.49,0.818c0.433-0.146,0.411-1.083,0.816-1.336c0.72-0.45,0.926,0.206,1.592-0.434
		c0.216-0.208,0.444-1.046,0.668-1.099c0.174-0.041,0.556,0.404,0.748,0.458c0.305,0.087,0.611-0.107,0.896-0.017
		c0.312,0.099,0.451,0.537,0.838,0.611c0.537,0.103,1.1-0.436,1.643-0.753c0.287-0.168,0.491-0.512,0.782-0.7
		c0.166-0.107,0.577,0.035,0.72-0.106c0.335-0.329-0.175-0.735,0.495-1.101c0.3-0.164,0.698,0.112,1.048,0.069
		c1.009-0.124,0.222-0.452,0.805-1.078c0.554-0.595,0.487-0.164,0.857,0.045c0.503,0.284,0.583,0.515,1.33,0.476
		c0.778-0.041,0.982-0.326,1.577,0.067c0.108,0.071,0.171,0.42,0.257,0.506c0.177,0.178,0.538,0.083,0.693,0.286
		c0.318,0.414-0.071,1.217,0.752,1.272c0.546,0.037,0.502-0.713,1.11-0.648c0.309,0.033,0.495,0.49,0.787,0.585
		c0.429,0.14,0.553-0.036,1.002-0.05c0.763-0.024,1.234,0.49,1.723-0.108c0.151-0.185,0.031-1.566,0.175-1.869
		c0.204-0.425,0.636-0.996,1.095-1.195c0.649-0.282,1.633,0.173,2.157-0.051c0.191-0.082,0.806-0.596,0.91-0.819
		c0.088-0.188,0.059-0.626,0.13-0.83c0.046-0.133,0.449-0.355,0.466-0.465c0.119-0.766-0.511-1.082-0.158-1.884
		c0.324-0.736,0.78-0.582,1.521-0.77c1.063-0.27,0.751-0.491,1.385-1.145c0.466-0.481,0.714-0.362,0.991-0.953
		c0.084-0.18,0.31-1.238,0.314-1.484c0.007-0.45-0.546-1.413-0.775-1.8c-0.331-0.558-1.193-0.994-1.453-1.48
		c-0.183-0.342-0.194-0.059-0.147-0.464c0.018-0.155,0.845-0.779,0.946-0.881c0.16-0.161,0.524-0.693,0.708-0.721
		c0.235-0.036,0.719,0.361,1.144,0.289c0.274-0.046,0.702-0.293,0.922-0.494c0.391-0.355,0.323-0.804,0.587-1.098
		c0.512-0.57,1.41-0.52,1.143-1.476c1.069-0.201,2.682-1.28,0.969-2.044c0.508-0.848,4.652-3.63,5.149-1.603
		c0.073,0.297-0.105,0.927-0.051,1.289c0.234,0.151,0.254,0.339,0.061,0.565c0.25,0.215,0.238,0.413-0.034,0.593
		c-0.005,0.897,0.198,1.689-0.08,2.58c-0.312,0.998-1.152,1.094-0.654,2.263c0.221,0.208,0.384,0.455,0.488,0.741
		c-0.213,0.137-0.334,0.336-0.363,0.597c0.004,0.01,0.765,0.783,0.796,0.806c0.651,0.486,1.563,0.607,2.051,1.096
		c0.237,0.238,0.66,1.008,0.894,1.338c0.407,0.576,0.444,0.869,1.148,1.164c-0.326,0.42-0.185,0.854,0.256,1.222
		c0.185,0.154,0.08,0.252,0.332,0.368c0.125,0.057,0.673-0.069,0.848-0.033c0.239,0.05,0.892,0.437,1.156,0.548
		c0.211,0.089,0.729,0.605,0.942,0.576c0.1-0.014,0.837-1.003,0.978-1.098c0.189,0.277,0.602,0.921,0.901,1.048
		c0.484,0.206,0.872-0.261,1.112-0.166c0.169,0.067,1.291,1.114,1.332,1.274c0.213,0.826-2.941,2.741-1.846,3.685
		c0.193,0.166,0.617-0.006,0.857,0.073c0.578,0.191,0.723,0.584,1.208,0.94c0.208,0.152,0.957,0.346,1.05,0.505
		c0.144,0.244-0.17,0.804-0.056,1.101c0.135,0.351,0.464,0.36,0.615,0.6c0.194,0.307,0.175,0.525,0.286,0.875
		c0.164,0.515,0.211,1.041,0.646,1.349c-0.339,0.205-0.833,0.614-0.825,1.061c0.015,0.831,0.175,0.213,0.723,0.256
		c0.126-0.075,0.251-0.15,0.377-0.225c0.075,0.094,0.151,0.188,0.226,0.282c0.039,0,0.343,0.058,0.366,0.063
		c0.163,0.038,0.374-0.132,0.534-0.041c0.178,0.101,0.036,0.425,0.176,0.503c0.946,0.528,1.172,0.204,1.515-0.648
		c0.145-0.359,0.272-0.9,0.449-1.212c0.222-0.391,0.825-0.703,0.954-1.143c0.192-0.654-0.543-1.228-1.117-1.632
		c-0.197-0.139-0.55,0.003-0.713-0.157c-0.349-0.344-0.232-0.955-0.338-1.364c-0.151-0.583-0.504,0.042-0.294-0.689
		c0.135-0.468,0.595-0.562,0.662-1.067c0.15-1.128-1.095-1.648,0.4-2.434c0.8-0.42,1.702-0.413,1.568-1.666
		c-0.069-0.647-0.549-0.698-0.182-1.305c0.206-0.342,1.102-0.729,1.457-1.067c0.336-0.319,0.638-0.734,1.055-0.97
		c0.413-0.234,0.703-0.123,0.977-0.542c0.181-0.277,0.288-0.973,0.464-1.316c0.178-0.347,0.532-0.678,0.714-0.948
		c0.329-0.488,0.402-0.355,0.579-1.161c0.1-0.454,0.201-0.772,0.458-1.166c0.5-0.766,0.774-1.434,0.93-2.192
		c0.166-0.806-0.343-1.281-0.483-2.048c-0.164-0.899-0.03-1.366-0.551-2.188c-0.335-0.528-0.524-0.486-0.263-1.018
		c0.069-0.14,0.417-0.151,0.525-0.302c0.224-0.314,0.086-0.399,0.168-0.821c0.108-0.559-0.122-0.839,0.533-1.205
		c0.31-0.173,1.7-0.382,1.947-0.282c0.456,0.185,0.363,1.202,1.101,1.552c0.71,0.337,0.648,0.076,1.022-0.47
		c0.32-0.466,0.351-0.718,0.977-1.025c-0.434,1.019,0.062,1.564-0.076,2.751c-0.082,0.703-0.095,0.829,0.051,1.497
		c0.079,0.362-0.037,1.2,0.092,1.471c0.2,0.421,0.786,0.534,1.084,0.881c0.482,0.562,0.532,1.466,1.05,2.006
		c0.536,0.56,2.012,1.006,2.813,1.159c0.754,0.144,0.749-0.308,1.361-0.406c0.411-0.066,0.144,0.015,0.517,0.08
		c0.252,0.043,0.501,0.415,0.811,0.31c0.284-0.096,0.457-0.543,0.484-0.844c0.012-0.136-0.022-0.451-0.004-0.54
		c-0.059-0.074-0.119-0.148-0.178-0.223c0.098-0.115,0.195-0.23,0.293-0.346c0.037-0.138,0.084-0.621,0.23-0.706
		c0.444-0.258,0.214,0.082,0.622,0.137c0.895,0.119,1.196,0.098,2.051-0.342c0.528-0.272,0.879-0.265,1.388-0.448
		c0.451-0.162,0.823-0.527,1.295-0.744c-0.649,0.749,1.608,0.207,1.237,0.087c-0.1-0.032,1.431,1.141,1.449,1.205
		c0.069,0.246-0.328,0.485-0.311,0.702c0.022,0.28,0.032,0.378,0.075,0.635c0.019,0.115,0.23,0.676,0.262,0.778
		c0.063,0.199-0.18,0.354-0.052,0.623c0.351,0.734,1.616,0.393,1.903,1.316c0.222,0.714-0.769,1.271,0.27,1.711
		c0.377,0.16,1.019-0.134,1.519-0.194c0.715-0.086,1.847-0.431,2.017-1.376c0.282-1.57-2.139-2.235-2.064-3.66
		c0.025-0.481,0.351-0.883,0.583-1.248c0.274-0.43,0.069-0.431,0.477-0.819c0.179-0.17,0.454-0.012,0.624-0.252
		c0.061-0.086,0.16-0.661,0.12-0.793c-0.23-0.772-0.048,0.054-0.417-0.419c-0.239-0.306-0.255-0.656-0.777-0.76
		c-0.686-0.137-0.919,0.412-1.557,0.179c-0.583-0.213-0.609-0.49-1.206-0.752c0.536-0.874,0.294-1.222,0.298-2.19
		c0.002-0.531,0.204-0.873,0.213-1.391c0.004-0.217-0.331-0.46-0.25-0.676c0.097-0.257,0.38-0.087,0.522-0.285
		c0.287-0.401,0.723-0.787,0.478-1.26c1.099-0.275,0.114-0.663,0.671-1.355c0.253-0.315,0.306,0.051,0.617-0.056
		c0.28-0.096,0.596-0.245,0.903-0.362c0.25-0.095,0.65-0.295,0.904-0.321c0.124-0.013,0.663,0.082,0.744,0.063
		c0.092-0.021,0.386,0.014,0.52-0.008c0.196-0.033,0.214-0.539,0.471-0.575c0.444,0.764,0.304,0.874,0.24,1.673
		c-0.064,0.806,0.055,0.688,0.435,0.96c0.058,0.041,0.405-0.048,0.606,0.084c0.302,0.197,0.244,0.77,0.553,0.967
		c0.13,0.084,1.3,0.432,1.385,0.401c0.298-0.109,0.3-0.533,0.598-0.608c0.26-0.066,1.107,0.393,1.397,0.448
		c0.251,0.048,0.365-0.125,0.617-0.045c0.207,0.065,0.276,0.387,0.463,0.475c0.512,0.242,0.719,0.163,1.03-0.455
		c1.087-2.154,0.622-5.452,0.622-7.842c0-1.876,0-3.751,0-5.627C146.086,47.74,146.612,44.552,145.599,44.141
		C145.213,43.985,145.76,44.206,145.599,44.141z M12.074,70.992c0.016,0.027,0.036,0.058,0.058,0.093
		C12.11,71.05,12.09,71.02,12.074,70.992z"/>
</g>
<g id="Group_2_1_" display="none">
	<g id="Couleur_5_xA0_Image_1_" display="inline">
		
			<image overflow="visible" width="3437" height="2552" id="Couleur_5_xA0_Image" xlink:href="B75E47311E537CCE.png"  transform="matrix(0.16 0 0 0.16 31.04 45.6)">
		</image>
	</g>
	<g id="Couleur_4_xA0_Image_1_" display="inline">
		
			<image overflow="visible" width="2859" height="2573" id="Couleur_4_xA0_Image" xlink:href="B75E47311E537CC9.png"  transform="matrix(0.16 0 0 0.16 102.72 50.56)">
		</image>
	</g>
	<g id="Couleur_3_xA0_Image_1_" display="inline">
		
			<image overflow="visible" width="2646" height="1747" id="Couleur_3_xA0_Image" xlink:href="B75E47311E537CC8.png"  transform="matrix(0.16 0 0 0.16 166.88 72.8)">
		</image>
	</g>
	<g id="Couleur_2_xA0_Image_1_" display="inline">
		
			<image overflow="visible" width="4164" height="2258" id="Couleur_2_xA0_Image" xlink:href="B75E47311E537CC7.png"  transform="matrix(0.16 0 0 0.16 47.04 25.12)">
		</image>
	</g>
</g>
<g id="cantons_1_" display="none">
	<g id="Group_3_1_" display="inline" opacity="0.502">
		<g id="ar_xA0_Image_3_">
			
				<image overflow="visible" width="403" height="302" id="ar_xA0_Image_2_" xlink:href="B75E47311E537CD6.png"  transform="matrix(0.16 0 0 0.16 518.4 100.96)">
			</image>
		</g>
		<g id="sh_xA0_Image_1_">
			
				<image overflow="visible" width="434" height="322" id="sh_xA0_Image" xlink:href="B75E47311E537CD9.png"  transform="matrix(0.16 0 0 0.16 400.16 25.12)">
			</image>
		</g>
		<g id="ar_xA0_Image_1_">
			
				<image overflow="visible" width="402" height="302" id="ar_xA0_Image" xlink:href="B75E47311E537CD8.png"  transform="matrix(0.16 0 0 0.16 518.56 100.96)">
			</image>
		</g>
		<g id="gr_xA0_Image_1_">
			
				<image overflow="visible" width="1727" height="1224" id="gr_xA0_Image" xlink:href="B75E47311E537CDF.png"  transform="matrix(0.16 0 0 0.16 436.96 190.56)">
			</image>
		</g>
		<g id="ow_xA0_Image_1_">
			
				<image overflow="visible" width="432" height="310" id="ow_xA0_Image" xlink:href="B75E47311E537CDE.png"  transform="matrix(0.16 0 0 0.16 345.12 208.96)">
			</image>
		</g>
		<g id="tg_xA0_Image_1_">
			
				<image overflow="visible" width="757" height="433" id="tg_xA0_Image" xlink:href="80A04A19621109BC.png"  transform="matrix(0.16 0 0 0.16 439.04 50.56)">
			</image>
		</g>
		<g id="sz_xA0_Image_1_">
			
				<image overflow="visible" width="574" height="459" id="sz_xA0_Image" xlink:href="80A04A19621109BD.png"  transform="matrix(0.16 0 0 0.16 396.96 155.68)">
			</image>
		</g>
		<g id="ti_xA0_Image_1_">
			
				<image overflow="visible" width="727" height="1102" id="ti_xA0_Image" xlink:href="80A04A19621109BF.png"  transform="matrix(0.16 0 0 0.16 396.32 285.92)">
			</image>
		</g>
		<g id="sg_xA0_Image_1_">
			
				<image overflow="visible" width="823" height="908" id="sg_xA0_Image" xlink:href="80A04A19621109BB.png"  transform="matrix(0.16 0 0 0.16 458.56 86.72)">
			</image>
		</g>
		<g id="zg_xA0_Image_1_">
			
				<image overflow="visible" width="280" height="220" id="zg_xA0_Image" xlink:href="80A04A19621109A4.png"  transform="matrix(0.16 0 0 0.16 398.4 150.88)">
			</image>
		</g>
		<g id="bs_xA0_Image_1_">
			
				<image overflow="visible" width="122" height="102" id="bs_xA0_Image" xlink:href="80A04A19621109A9.png"  transform="matrix(0.16 0 0 0.16 271.68 72.8)">
			</image>
		</g>
		<g id="ai_xA0_Image_1_">
			
				<image overflow="visible" width="278" height="277" id="ai_xA0_Image" xlink:href="80A04A19621109AA.png"  transform="matrix(0.16 0 0 0.16 536.48 107.68)">
			</image>
		</g>
		<g id="zh_xA0_Image_1_">
			
				<image overflow="visible" width="586" height="769" id="zh_xA0_Image" xlink:href="80A04A19621109AB.png"  transform="matrix(0.16 0 0 0.16 392.48 45.6)">
			</image>
		</g>
		<g id="gl_xA0_Image_1_">
			
				<image overflow="visible" width="352" height="518" id="gl_xA0_Image" xlink:href="80A04A19621109AE.png"  transform="matrix(0.16 0 0 0.16 470.4 166.4)">
			</image>
		</g>
		<g id="nw_xA0_Image_1_">
			
				<image overflow="visible" width="330" height="337" id="nw_xA0_Image" xlink:href="80A04A19621109AF.png"  transform="matrix(0.16 0 0 0.16 371.68 200.32)">
			</image>
		</g>
		<g id="so_xA0_Image_1_">
			
				<image overflow="visible" width="646" height="585" id="so_xA0_Image" xlink:href="80A04A19621109C9.png"  transform="matrix(0.16 0 0 0.16 239.2 93.92)">
			</image>
		</g>
		<g id="ag_xA0_Image_1_">
			
				<image overflow="visible" width="681" height="671" id="ag_xA0_Image" xlink:href="80A04A19621109CA.png"  transform="matrix(0.16 0 0 0.16 296.32 66.4)">
			</image>
		</g>
		<g id="bl_xA0_Image_1_">
			
				<image overflow="visible" width="589" height="309" id="bl_xA0_Image" xlink:href="80A04A19621109CB.png"  transform="matrix(0.16 0 0 0.16 237.28 79.52)">
			</image>
		</g>
		<g id="ju_xA0_Image_1_">
			
				<image overflow="visible" width="663" height="486" id="ju_xA0_Image" xlink:href="80A04A19621109CE.png"  transform="matrix(0.16 0 0 0.16 164 92.8)">
			</image>
		</g>
		<g id="be_xA0_Image_1_">
			
				<image overflow="visible" width="1496" height="1388" id="be_xA0_Image" xlink:href="80A04A19621109C8.png"  transform="matrix(0.16 0 0 0.16 166.88 130.24)">
			</image>
		</g>
		<g id="fr_xA0_Image_1_">
			
				<image overflow="visible" width="588" height="777" id="fr_xA0_Image" xlink:href="80A04A19621109F6.png"  transform="matrix(0.16 0 0 0.16 150.24 203.2)">
			</image>
		</g>
		<g id="vs_xA0_Image_1_">
			
				<image overflow="visible" width="1602" height="1081" id="vs_xA0_Image" xlink:href="80A04A19621109F7.png"  transform="matrix(0.16 0 0 0.16 153.44 280.96)">
			</image>
		</g>
		<g id="ne_xA0_Image_1_">
			
				<image overflow="visible" width="609" height="434" id="ne_xA0_Image" xlink:href="80A04A19621109F8.png"  transform="matrix(0.16 0 0 0.16 102.72 168.8)">
			</image>
		</g>
		<g id="ge_xA0_Image_1_">
			
				<image overflow="visible" width="324" height="309" id="ge_xA0_Image" xlink:href="80A04A19621109FB.png"  transform="matrix(0.16 0 0 0.16 31.04 344.64)">
			</image>
		</g>
		<g id="vd_xA0_Image_1_">
			
				<image overflow="visible" width="1110" height="1082" id="vd_xA0_Image" xlink:href="80A04A19621109FE.png"  transform="matrix(0.16 0 0 0.16 47.04 209.44)">
			</image>
		</g>
		<g id="lu_xA0_Image_1_">
			
				<image overflow="visible" width="634" height="702" id="lu_xA0_Image" xlink:href="80A04A19621109E9.png"  transform="matrix(0.16 0 0 0.16 314.08 141.28)">
			</image>
		</g>
		<g id="ur_xA0_Image_1_">
			
				<image overflow="visible" width="524" height="642" id="ur_xA0_Image" xlink:href="80A04A19621109D6.png"  transform="matrix(0.16 0 0 0.16 398.56 205.28)">
			</image>
		</g>
	</g>
</g>
<g id="Calque_36">
</g>
</svg>
